<?xml version="1.0" standalone="no"?>
<!DOCTYPE svg PUBLIC "-//W3C//DTD SVG 20010904//EN"
 "http://www.w3.org/TR/2001/REC-SVG-20010904/DTD/svg10.dtd">
<svg version="1.0" xmlns="http://www.w3.org/2000/svg"
 width="700.000000pt" height="700.000000pt" viewBox="0 0 700.000000 700.000000"
 preserveAspectRatio="xMidYMid meet">
<metadata>
Created by potrace 1.14, written by Peter Selinger 2001-2017
</metadata>
<g transform="translate(0.000000,700.000000) scale(0.100000,-0.100000)"
fill="#000000" stroke="none">
<path d="M1349 6118 c-302 -41 -561 -233 -687 -509 -17 -36 -36 -86 -42 -110
-37 -135 -37 -156 -35 -2026 1 -1005 5 -1842 8 -1860 46 -248 176 -450 377
-586 115 -78 225 -119 385 -145 85 -14 4259 -7 4338 7 364 63 647 350 710 721
11 60 13 452 11 1915 0 1012 -4 1854 -8 1870 -36 155 -70 239 -141 343 -55 82
-83 113 -166 183 -121 103 -274 172 -429 195 -62 9 -4254 11 -4321 2z m4284
-592 c87 -32 159 -105 187 -191 11 -32 13 -384 13 -1830 0 -984 -3 -1802 -6
-1816 -15 -76 -81 -160 -157 -200 l-45 -24 -2105 -3 c-2361 -3 -2166 -9 -2254
72 -27 25 -56 65 -72 100 l-27 60 0 1781 c0 979 3 1803 7 1830 15 94 94 185
193 221 57 20 4209 20 4266 0z"/>
<path d="M2240 4649 c-62 -22 -99 -48 -135 -95 -42 -55 -63 -120 -61 -189 4
-115 13 -126 399 -512 l352 -353 -352 -352 c-386 -387 -394 -397 -398 -513 -4
-116 55 -216 157 -268 73 -37 141 -41 226 -15 l65 20 477 476 c533 534 525
524 525 652 -1 131 10 117 -518 645 -276 276 -488 479 -508 488 -81 37 -156
42 -229 16z"/>
<path d="M3712 2904 c-80 -23 -140 -73 -180 -149 -23 -42 -27 -62 -26 -130 0
-66 5 -89 26 -131 31 -59 83 -108 147 -138 45 -20 59 -21 551 -21 l505 0 57
28 c219 107 218 417 0 524 l-57 28 -491 1 c-364 1 -501 -2 -532 -12z"/>
</g>
</svg>
